{
  "accessors": [
    {
      "bufferView": 2,
      "componentType": 5126,
      "count": 8135,
      "max": [
        1,
        0.37531998753547668,
        6.3668198585510254
      ],
      "min": [
        -1,
        -1,
        -1
      ],
      "type": "VEC3"
    },
    {
      "bufferView": 2,
      "byteOffset": 97620,
      "componentType": 5126,
      "count": 8135,
      "max": [
        1,
        1,
        1
      ],
      "min": [
        -1,
        -1,
        -1
      ],
      "type": "VEC3"
    },
    {
      "bufferView": 3,
      "componentType": 5126,
      "count": 8135,
      "max": [
        1,
        0.99999994039535522,
        1,
        1
      ],
      "min": [
        -1,
        -0.9999997615814209,
        -1,
        -1
      ],
      "type": "VEC4"
    },
    {
      "bufferView": 1,
      "componentType": 5126,
      "count": 8135,
      "max": [
        3.5731101036071777,
        3.8898398876190186
      ],
      "min": [
        -1.9519699811935425,
        -0.93900001049041748
      ],
      "type": "VEC2"
    },
    {
      "bufferView": 0,
      "componentType": 5125,
      "count": 31488,
      "max": [
        8134
      ],
      "min": [
        0
      ],
      "type": "SCALAR"
    },
    {
      "bufferView": 2,
      "byteOffset": 195240,
      "componentType": 5126,
      "count": 46698,
      "max": [
        0.87001997232437134,
        -0.63019001483917236,
        4.9846000671386719
      ],
      "min": [
        -0.87001997232437134,
        -0.83390998840332031,
        -0.5654900074005127
      ],
      "type": "VEC3"
    },
    {
      "bufferView": 2,
      "byteOffset": 755616,
      "componentType": 5126,
      "count": 46698,
      "max": [
        1,
        1,
        1
      ],
      "min": [
        -1,
        -1,
        -1
      ],
      "type": "VEC3"
    },
    {
      "bufferView": 3,
      "byteOffset": 130160,
      "componentType": 5126,
      "count": 46698,
      "max": [
        0.9999995231628418,
        0.9999997615814209,
        0.34419459104537964,
        1
      ],
      "min": [
        -0.9999995231628418,
        -1,
        -0.36908045411109924,
        -1
      ],
      "type": "VEC4"
    },
    {
      "bufferView": 1,
      "byteOffset": 65080,
      "componentType": 5126,
      "count": 46698,
      "max": [
        1.1351399421691895,
        2.1298599243164062
      ],
      "min": [
        -0.55198001861572266,
        -2.107759952545166
      ],
      "type": "VEC2"
    },
    {
      "bufferView": 0,
      "byteOffset": 125952,
      "componentType": 5125,
      "count": 276480,
      "max": [
        46697
      ],
      "min": [
        0
      ],
      "type": "SCALAR"
    },
    {
      "bufferView": 2,
      "byteOffset": 1315992,
      "componentType": 5126,
      "count": 4,
      "max": [
        0.61347997188568115,
        0.098580002784729004,
        0.84026002883911133
      ],
      "min": [
        -0.61347997188568115,
        0.098580002784729004,
        -0.84026002883911133
      ],
      "type": "VEC3"
    },
    {
      "bufferView": 2,
      "byteOffset": 1316040,
      "componentType": 5126,
      "count": 4,
      "max": [
        0,
        -1,
        -0
      ],
      "min": [
        0,
        -1,
        -0
      ],
      "type": "VEC3"
    },
    {
      "bufferView": 3,
      "byteOffset": 877328,
      "componentType": 5126,
      "count": 4,
      "max": [
        1,
        0,
        0,
        1
      ],
      "min": [
        1,
        0,
        0,
        1
      ],
      "type": "VEC4"
    },
    {
      "bufferView": 1,
      "byteOffset": 438664,
      "componentType": 5126,
      "count": 4,
      "max": [
        1.0082299709320068,
        1.0068999528884888
      ],
      "min": [
        -0.0069099999964237213,
        -0.0068999999202787876
      ],
      "type": "VEC2"
    },
    {
      "bufferView": 0,
      "byteOffset": 1231872,
      "componentType": 5125,
      "count": 6,
      "max": [
        3
      ],
      "min": [
        0
      ],
      "type": "SCALAR"
    },
    {
      "bufferView": 2,
      "byteOffset": 1316088,
      "componentType": 5126,
      "count": 104,
      "max": [
        0.39651000499725342,
        0.12902000546455383,
        -0.046649999916553497
      ],
      "min": [
        -0.067520000040531158,
        0.048480000346899033,
        -0.55137002468109131
      ],
      "type": "VEC3"
    },
    {
      "bufferView": 2,
      "byteOffset": 1317336,
      "componentType": 5126,
      "count": 104,
      "max": [
        0.9807855486869812,
        1,
        0.9807855486869812
      ],
      "min": [
        -0.9807855486869812,
        -1,
        -0.9807855486869812
      ],
      "type": "VEC3"
    },
    {
      "bufferView": 3,
      "byteOffset": 877392,
      "componentType": 5126,
      "count": 104,
      "max": [
        1,
        0,
        0.8314698338508606,
        1
      ],
      "min": [
        -0.92541706562042236,
        -1,
        -0.93101698160171509,
        -1
      ],
      "type": "VEC4"
    },
    {
      "bufferView": 1,
      "byteOffset": 438696,
      "componentType": 5126,
      "count": 104,
      "max": [
        0.66519999504089355,
        0.96230000257492065
      ],
      "min": [
        0.31977000832557678,
        0.054320000112056732
      ],
      "type": "VEC2"
    },
    {
      "bufferView": 0,
      "byteOffset": 1231896,
      "componentType": 5125,
      "count": 192,
      "max": [
        103
      ],
      "min": [
        0
      ],
      "type": "SCALAR"
    },
    {
      "bufferView": 2,
      "byteOffset": 1318584,
      "componentType": 5126,
      "count": 8,
      "max": [
        0.62206000089645386,
        1.0857700109481812,
        -0.89998000860214233
      ],
      "min": [
        -0.91996997594833374,
        0.061700001358985901,
        -5.57666015625
      ],
      "type": "VEC3"
    },
    {
      "bufferView": 2,
      "byteOffset": 1318680,
      "componentType": 5126,
      "count": 8,
      "max": [
        0,
        0,
        -0
      ],
      "min": [
        -1,
        -1,
        -0
      ],
      "type": "VEC3"
    },
    {
      "bufferView": 3,
      "byteOffset": 879056,
      "componentType": 5126,
      "count": 8,
      "max": [
        1,
        0,
        0,
        1
      ],
      "min": [
        0,
        -1,
        0,
        1
      ],
      "type": "VEC4"
    },
    {
      "bufferView": 0,
      "byteOffset": 1232664,
      "componentType": 5125,
      "count": 12,
      "max": [
        7
      ],
      "min": [
        0
      ],
      "type": "SCALAR"
    },
    {
      "bufferView": 2,
      "byteOffset": 1318776,
      "componentType": 5126,
      "count": 2695,
      "max": [
        0.61804002523422241,
        -0.013910000212490559,
        0.1031000018119812
      ],
      "min": [
        -0.61804002523422241,
        -10.927330017089844,
        -0.060449998825788498
      ],
      "type": "VEC3"
    },
    {
      "bufferView": 2,
      "byteOffset": 1351116,
      "componentType": 5126,
      "count": 2695,
      "max": [
        1,
        0.99999970197677612,
        1
      ],
      "min": [
        -0.99999994039535522,
        -1,
        -1
      ],
      "type": "VEC3"
    },
    {
      "bufferView": 0,
      "byteOffset": 1232712,
      "componentType": 5125,
      "count": 11688,
      "max": [
        2694
      ],
      "min": [
        0
      ],
      "type": "SCALAR"
    },
    {
      "bufferView": 2,
      "byteOffset": 1383456,
      "componentType": 5126,
      "count": 1810,
      "max": [
        0.95304000377655029,
        -0.85168999433517456,
        0.13626000285148621
      ],
      "min": [
        -0.95304000377655029,
        -2.7055299282073975,
        -0.10555999726057053
      ],
      "type": "VEC3"
    },
    {
      "bufferView": 2,
      "byteOffset": 1405176,
      "componentType": 5126,
      "count": 1810,
      "max": [
        1,
        0.99999958276748657,
        0.99999958276748657
      ],
      "min": [
        -1,
        -0.99999958276748657,
        -0.99999958276748657
      ],
      "type": "VEC3"
    },
    {
      "bufferView": 0,
      "byteOffset": 1279464,
      "componentType": 5125,
      "count": 10848,
      "max": [
        1809
      ],
      "min": [
        0
      ],
      "type": "SCALAR"
    },
    {
      "bufferView": 2,
      "byteOffset": 1426896,
      "componentType": 5126,
      "count": 1356,
      "max": [
        0.42779999971389771,
        0.095949999988079071,
        0.15146000683307648
      ],
      "min": [
        -0.42779999971389771,
        -0.1002499982714653,
        -0.16500000655651093
      ],
      "type": "VEC3"
    },
    {
      "bufferView": 2,
      "byteOffset": 1443168,
      "componentType": 5126,
      "count": 1356,
      "max": [
        1,
        1,
        1
      ],
      "min": [
        -1,
        -1,
        -1
      ],
      "type": "VEC3"
    },
    {
      "bufferView": 0,
      "byteOffset": 1322856,
      "componentType": 5125,
      "count": 8064,
      "max": [
        1355
      ],
      "min": [
        0
      ],
      "type": "SCALAR"
    },
    {
      "bufferView": 2,
      "byteOffset": 1459440,
      "componentType": 5126,
      "count": 24,
      "max": [
        1.6419199705123901,
        0.88383001089096069,
        1
      ],
      "min": [
        -1.6419199705123901,
        -1.7940700054168701,
        -1
      ],
      "type": "VEC3"
    },
    {
      "bufferView": 2,
      "byteOffset": 1459728,
      "componentType": 5126,
      "count": 24,
      "max": [
        1,
        1,
        1
      ],
      "min": [
        -1,
        -1,
        -1
      ],
      "type": "VEC3"
    },
    {
      "bufferView": 3,
      "byteOffset": 879184,
      "componentType": 5126,
      "count": 24,
      "max": [
        1,
        0,
        0,
        1
      ],
      "min": [
        0,
        0,
        0,
        1
      ],
      "type": "VEC4"
    },
    {
      "bufferView": 1,
      "byteOffset": 439528,
      "componentType": 5126,
      "count": 24,
      "max": [
        0.99032998085021973,
        0.75091999769210815
      ],
      "min": [
        0,
        0
      ],
      "type": "VEC2"
    },
    {
      "bufferView": 0,
      "byteOffset": 1355112,
      "componentType": 5125,
      "count": 36,
      "max": [
        23
      ],
      "min": [
        0
      ],
      "type": "SCALAR"
    },
    {
      "bufferView": 4,
      "componentType": 5126,
      "count": 120,
      "max": [
        5
      ],
      "min": [
        0.041669998317956924
      ],
      "type": "SCALAR"
    },
    {
      "bufferView": 5,
      "componentType": 5126,
      "count": 120,
      "max": [
        0.7067599892616272,
        0.046039998531341553,
        0.039299998432397842,
        0.70744997262954712
      ],
      "min": [
        0.70525997877120972,
        -0.039340000599622726,
        -0.045990001410245895,
        0.70595002174377441
      ],
      "type": "VEC4"
    }
  ],
  "animations": [
    {
      "channels": [
        {
          "sampler": 0,
          "target": {
            "node": 13,
            "path": "rotation"
          }
        }
      ],
      "name": "PlaneAction",
      "samplers": [
        {
          "input": 38,
          "interpolation": "LINEAR",
          "output": 39
        }
      ]
    }
  ],
  "asset": {
    "extras": {
      "author": "Dolores (https://sketchfab.com/upto21)",
      "license": "CC-BY-4.0 (http://creativecommons.org/licenses/by/4.0/)",
      "source": "https://sketchfab.com/models/03d9e1e3f20a4e3a98d8016a6765b220",
      "title": "Grandfather Clock"
    },
    "generator": "Sketchfab-3.20.7",
    "version": "2.0"
  },
  "bufferViews": [
    {
      "buffer": 0,
      "byteLength": 1355256,
      "byteOffset": 0,
      "name": "floatBufferViews",
      "target": 34963
    },
    {
      "buffer": 0,
      "byteLength": 439720,
      "byteOffset": 1355256,
      "byteStride": 8,
      "name": "floatBufferViews",
      "target": 34962
    },
    {
      "buffer": 0,
      "byteLength": 1460016,
      "byteOffset": 1794976,
      "byteStride": 12,
      "name": "floatBufferViews",
      "target": 34962
    },
    {
      "buffer": 0,
      "byteLength": 879568,
      "byteOffset": 3254992,
      "byteStride": 16,
      "name": "floatBufferViews",
      "target": 34962
    },
    {
      "buffer": 0,
      "byteLength": 480,
      "byteOffset": 4134560,
      "name": "floatBufferViews"
    },
    {
      "buffer": 0,
      "byteLength": 1920,
      "byteOffset": 4135040,
      "byteStride": 16,
      "name": "floatBufferViews"
    }
  ],
  "buffers": [
    {
      "byteLength": 4136960,
      "uri": "scene.bin"
    }
  ],
  "images": [
    {
      "uri": "textures/carpet_baseColor.jpeg"
    },
    {
      "uri": "textures/wood_baseColor.jpeg"
    },
    {
      "uri": "textures/hands_baseColor.png"
    },
    {
      "uri": "textures/face_baseColor.png"
    }
  ],
  "materials": [
    {
      "doubleSided": true,
      "emissiveFactor": [
        0,
        0,
        0
      ],
      "name": "carpet",
      "pbrMetallicRoughness": {
        "baseColorFactor": [
          0.2029344512,
          0.2029344512,
          0.2029344512,
          1
        ],
        "baseColorTexture": {
          "index": 0,
          "texCoord": 0
        },
        "metallicFactor": 0,
        "roughnessFactor": 0.22389481710000003
      }
    },
    {
      "doubleSided": true,
      "emissiveFactor": [
        0,
        0,
        0
      ],
      "name": "gold",
      "pbrMetallicRoughness": {
        "baseColorFactor": [
          1,
          0.47903162240000002,
          0.1044181213,
          1
        ],
        "metallicFactor": 0.66025152440000001,
        "roughnessFactor": 0.10194359760000005
      }
    },
    {
      "doubleSided": true,
      "emissiveFactor": [
        0,
        0,
        0
      ],
      "name": "face",
      "pbrMetallicRoughness": {
        "baseColorFactor": [
          1,
          1,
          1,
          1
        ],
        "baseColorTexture": {
          "index": 3,
          "texCoord": 0
        },
        "metallicFactor": 0.495617378,
        "roughnessFactor": 0.25438262199999995
      }
    },
    {
      "alphaMode": "BLEND",
      "doubleSided": true,
      "emissiveFactor": [
        0,
        0,
        0
      ],
      "name": "hands",
      "pbrMetallicRoughness": {
        "baseColorFactor": [
          1,
          1,
          1,
          1
        ],
        "baseColorTexture": {
          "index": 2,
          "texCoord": 0
        },
        "metallicFactor": 0,
        "roughnessFactor": 0.59999999999999998
      }
    },
    {
      "alphaMode": "BLEND",
      "doubleSided": true,
      "emissiveFactor": [
        0,
        0,
        0
      ],
      "name": "glass",
      "pbrMetallicRoughness": {
        "baseColorFactor": [
          0.80000001190000003,
          0.80000001190000003,
          0.80000001190000003,
          0.089748475600000002
        ],
        "metallicFactor": 0.39805640240000001,
        "roughnessFactor": 0
      }
    },
    {
      "doubleSided": true,
      "emissiveFactor": [
        0,
        0,
        0
      ],
      "name": "wood",
      "pbrMetallicRoughness": {
        "baseColorFactor": [
          1,
          1,
          1,
          1
        ],
        "baseColorTexture": {
          "index": 1,
          "texCoord": 0
        },
        "metallicFactor": 0,
        "roughnessFactor": 0.32755335370000005
      }
    }
  ],
  "meshes": [
    {
      "name": "clock_0",
      "primitives": [
        {
          "attributes": {
            "NORMAL": 1,
            "POSITION": 0,
            "TANGENT": 2,
            "TEXCOORD_0": 3
          },
          "indices": 4,
          "material": 5,
          "mode": 4
        }
      ]
    },
    {
      "name": "pillars_0",
      "primitives": [
        {
          "attributes": {
            "NORMAL": 6,
            "POSITION": 5,
            "TANGENT": 7,
            "TEXCOORD_0": 8
          },
          "indices": 9,
          "material": 5,
          "mode": 4
        }
      ]
    },
    {
      "name": "face_0",
      "primitives": [
        {
          "attributes": {
            "NORMAL": 11,
            "POSITION": 10,
            "TANGENT": 12,
            "TEXCOORD_0": 13
          },
          "indices": 14,
          "material": 2,
          "mode": 4
        }
      ]
    },
    {
      "name": "face_1",
      "primitives": [
        {
          "attributes": {
            "NORMAL": 16,
            "POSITION": 15,
            "TANGENT": 17,
            "TEXCOORD_0": 18
          },
          "indices": 19,
          "material": 3,
          "mode": 4
        }
      ]
    },
    {
      "name": "face_2",
      "primitives": [
        {
          "attributes": {
            "NORMAL": 21,
            "POSITION": 20,
            "TANGENT": 22
          },
          "indices": 23,
          "material": 4,
          "mode": 4
        }
      ]
    },
    {
      "name": "Plane_0",
      "primitives": [
        {
          "attributes": {
            "NORMAL": 25,
            "POSITION": 24
          },
          "indices": 26,
          "material": 1,
          "mode": 4
        }
      ]
    },
    {
      "name": "pendulum_0",
      "primitives": [
        {
          "attributes": {
            "NORMAL": 28,
            "POSITION": 27
          },
          "indices": 29,
          "material": 1,
          "mode": 4
        }
      ]
    },
    {
      "name": "Cylinder_0",
      "primitives": [
        {
          "attributes": {
            "NORMAL": 31,
            "POSITION": 30
          },
          "indices": 32,
          "material": 1,
          "mode": 4
        }
      ]
    },
    {
      "name": "Cube_0",
      "primitives": [
        {
          "attributes": {
            "NORMAL": 34,
            "POSITION": 33,
            "TANGENT": 35,
            "TEXCOORD_0": 36
          },
          "indices": 37,
          "material": 0,
          "mode": 4
        }
      ]
    }
  ],
  "nodes": [
    {
      "children": [
        1
      ],
      "name": "RootNode (gltf orientation matrix)",
      "rotation": [
        -0.70710678118654746,
        -0,
        -0,
        0.70710678118654757
      ]
    },
    {
      "children": [
        2
      ],
      "name": "RootNode (model correction matrix)"
    },
    {
      "children": [
        3,
        5,
        7,
        9,
        13,
        17,
        19
      ],
      "name": "Root"
    },
    {
      "children": [
        4
      ],
      "matrix": [
        -0.29086000000000006,
        0.95517000000000007,
        -0.05519000000000001,
        0,
        -0.77110000000000001,
        -0.19988000000000003,
        0.60452000000000006,
        0,
        0.56639000000000006,
        0.21839000000000003,
        0.7946700000000001,
        0,
        4.0762500000000008,
        1.00545,
        5.9038600000000008,
        1
      ],
      "name": "Lamp"
    },
    {
      "name": "Lamp"
    },
    {
      "children": [
        6
      ],
      "matrix": [
        1,
        0,
        0,
        0,
        0,
        0.9345,
        0,
        0,
        0,
        0,
        1,
        0,
        0,
        0,
        1.00841,
        1
      ],
      "name": "clock"
    },
    {
      "mesh": 0,
      "name": "clock_0"
    },
    {
      "children": [
        8
      ],
      "matrix": [
        1,
        0,
        0,
        0,
        0,
        0.9345,
        0,
        0,
        0,
        0,
        1,
        0,
        0,
        0,
        1.00841,
        1
      ],
      "name": "pillars"
    },
    {
      "mesh": 1,
      "name": "pillars_0"
    },
    {
      "children": [
        10,
        11,
        12
      ],
      "matrix": [
        0.83647000000000005,
        0,
        0,
        0,
        0,
        0.83647000000000005,
        0,
        0,
        0,
        0,
        0.83647000000000005,
        0,
        -0.00047000000000000015,
        -0.76376000000000011,
        5.4203000000000001,
        1
      ],
      "name": "face"
    },
    {
      "mesh": 2,
      "name": "face_0"
    },
    {
      "mesh": 3,
      "name": "face_1"
    },
    {
      "mesh": 4,
      "name": "face_2"
    },
    {
      "children": [
        14,
        15
      ],
      "name": "Plane",
      "rotation": [
        0.70526283979415894,
        0.046040184795856476,
        -0.045990187674760818,
        0.70595288276672363
      ],
      "scale": [
        0.30990999937057495,
        0.30990999937057495,
        0.30990999937057495
      ],
      "translation": [
        -0.010780000127851963,
        -0.21566000580787659,
        4.6236000061035156
      ]
    },
    {
      "mesh": 5,
      "name": "Plane_0"
    },
    {
      "children": [
        16
      ],
      "matrix": [
        1,
        -0,
        -0,
        0,
        0,
        1,
        0,
        0,
        0,
        -0,
        1,
        0,
        0.013710000000000003,
        -7.9846200000000005,
        0.093000000000000027,
        1
      ],
      "name": "pendulum"
    },
    {
      "mesh": 6,
      "name": "pendulum_0"
    },
    {
      "children": [
        18
      ],
      "matrix": [
        0.92052,
        0,
        0,
        0,
        0,
        0.92052,
        0,
        0,
        0,
        0,
        7.6548099999999986,
        0,
        0.017230000000000002,
        -0.34797000000000011,
        3.9447999999999999,
        1
      ],
      "name": "Cylinder"
    },
    {
      "mesh": 7,
      "name": "Cylinder_0"
    },
    {
      "children": [
        20
      ],
      "matrix": [
        1.9691399999999999,
        0,
        0,
        0,
        0,
        1.4774099999999999,
        0,
        0,
        0,
        0,
        0.48028000000000004,
        0,
        0.079280000000000017,
        -0.22993000000000005,
        -0.47784000000000004,
        1
      ],
      "name": "Cube"
    },
    {
      "mesh": 8,
      "name": "Cube_0"
    }
  ],
  "samplers": [
    {
      "magFilter": 9729,
      "minFilter": 9987,
      "wrapS": 10497,
      "wrapT": 10497
    }
  ],
  "scene": 0,
  "scenes": [
    {
      "name": "OSG_Scene",
      "nodes": [
        0
      ]
    }
  ],
  "textures": [
    {
      "sampler": 0,
      "source": 0
    },
    {
      "sampler": 0,
      "source": 1
    },
    {
      "sampler": 0,
      "source": 2
    },
    {
      "sampler": 0,
      "source": 3
    }
  ]
}

