{
  "accessors": [
    {
      "bufferView": 2,
      "componentType": 5126,
      "count": 5146,
      "max": [
        2.6576316356658936,
        13.73809814453125,
        2.8415331840515137
      ],
      "min": [
        -2.6576316356658936,
        0,
        -2.8415331840515137
      ],
      "type": "VEC3"
    },
    {
      "bufferView": 2,
      "byteOffset": 61752,
      "componentType": 5126,
      "count": 5146,
      "max": [
        1,
        1,
        1
      ],
      "min": [
        -1,
        -1,
        -1
      ],
      "type": "VEC3"
    },
    {
      "bufferView": 3,
      "componentType": 5126,
      "count": 5146,
      "max": [
        1,
        1,
        1,
        1
      ],
      "min": [
        -1,
        0,
        -1,
        -1
      ],
      "type": "VEC4"
    },
    {
      "bufferView": 1,
      "componentType": 5126,
      "count": 5146,
      "max": [
        1.0000001192092896,
        1.0000001192092896
      ],
      "min": [
        0,
        0
      ],
      "type": "VEC2"
    },
    {
      "bufferView": 0,
      "componentType": 5125,
      "count": 9252,
      "max": [
        5145
      ],
      "min": [
        0
      ],
      "type": "SCALAR"
    },
    {
      "bufferView": 2,
      "byteOffset": 123504,
      "componentType": 5126,
      "count": 260,
      "max": [
        2.4405865669250488,
        12.844949722290039,
        1.8824058771133423
      ],
      "min": [
        -1.5328036546707153,
        11.085287094116211,
        -1.8824058771133423
      ],
      "type": "VEC3"
    },
    {
      "bufferView": 2,
      "byteOffset": 126624,
      "componentType": 5126,
      "count": 260,
      "max": [
        1,
        1,
        1
      ],
      "min": [
        -1,
        -1,
        -1
      ],
      "type": "VEC3"
    },
    {
      "bufferView": 3,
      "byteOffset": 82336,
      "componentType": 5126,
      "count": 260,
      "max": [
        1,
        0,
        -0,
        1
      ],
      "min": [
        1,
        0,
        -0,
        -1
      ],
      "type": "VEC4"
    },
    {
      "bufferView": 1,
      "byteOffset": 41168,
      "componentType": 5126,
      "count": 260,
      "max": [
        1,
        0
      ],
      "min": [
        0.9999997615814209,
        0
      ],
      "type": "VEC2"
    },
    {
      "bufferView": 0,
      "byteOffset": 37008,
      "componentType": 5125,
      "count": 528,
      "max": [
        259
      ],
      "min": [
        0
      ],
      "type": "SCALAR"
    }
  ],
  "asset": {
    "extras": {
      "author": "Davor Mulalic (https://sketchfab.com/davor90)",
      "license": "CC-BY-4.0 (http://creativecommons.org/licenses/by/4.0/)",
      "source": "https://sketchfab.com/3d-models/tall-table-f57581269c7b47d4abdc4c7b49fb7e29",
      "title": "Tall Table"
    },
    "generator": "Sketchfab-6.39.0",
    "version": "2.0"
  },
  "bufferViews": [
    {
      "buffer": 0,
      "byteLength": 39120,
      "byteOffset": 0,
      "name": "floatBufferViews",
      "target": 34963
    },
    {
      "buffer": 0,
      "byteLength": 43248,
      "byteOffset": 39120,
      "byteStride": 8,
      "name": "floatBufferViews",
      "target": 34962
    },
    {
      "buffer": 0,
      "byteLength": 129744,
      "byteOffset": 82368,
      "byteStride": 12,
      "name": "floatBufferViews",
      "target": 34962
    },
    {
      "buffer": 0,
      "byteLength": 86496,
      "byteOffset": 212112,
      "byteStride": 16,
      "name": "floatBufferViews",
      "target": 34962
    }
  ],
  "buffers": [
    {
      "byteLength": 298608,
      "uri": "scene.bin"
    }
  ],
  "materials": [
    {
      "doubleSided": true,
      "name": "Scene_-_Root",
      "pbrMetallicRoughness": {
        "baseColorFactor": [
          0.20594136762876553,
          0.055253798561877829,
          0.0020184817768070734,
          1
        ],
        "metallicFactor": 1,
        "roughnessFactor": 0.5
      }
    }
  ],
  "meshes": [
    {
      "primitives": [
        {
          "attributes": {
            "NORMAL": 1,
            "POSITION": 0,
            "TANGENT": 2,
            "TEXCOORD_0": 3
          },
          "indices": 4,
          "material": 0,
          "mode": 4
        }
      ]
    },
    {
      "primitives": [
        {
          "attributes": {
            "NORMAL": 6,
            "POSITION": 5,
            "TANGENT": 7,
            "TEXCOORD_0": 8
          },
          "indices": 9,
          "material": 0,
          "mode": 4
        }
      ]
    }
  ],
  "nodes": [
    {
      "children": [
        1
      ],
      "name": "RootNode (gltf orientation matrix)",
      "rotation": [
        -0.70710678118654746,
        -0,
        -0,
        0.70710678118654757
      ]
    },
    {
      "children": [
        2
      ],
      "matrix": [
        0.56866675615310669,
        -0.82256799936294556,
        0,
        0,
        0.82256799936294556,
        0.56866675615310669,
        0,
        0,
        0,
        0,
        1,
        0,
        6.0234776810830226e-07,
        -6.5115884240185551e-08,
        0,
        1
      ],
      "name": "RootNode (model correction matrix)"
    },
    {
      "children": [
        3
      ],
      "name": "root"
    },
    {
      "children": [
        4,
        6
      ],
      "matrix": [
        1,
        0,
        0,
        0,
        0,
        2.2204460492503131e-16,
        1,
        0,
        0,
        -1,
        2.2204460492503131e-16,
        0,
        0,
        0,
        0,
        1
      ],
      "name": "GLTF_SceneRootNode"
    },
    {
      "children": [
        5
      ],
      "matrix": [
        0.077138006687164307,
        0,
        0,
        0,
        0,
        0.077138006687164307,
        0,
        0,
        0,
        0,
        0.077138006687164307,
        0,
        0,
        0,
        0,
        1
      ],
      "name": "Circle_0"
    },
    {
      "mesh": 0,
      "name": ""
    },
    {
      "children": [
        7
      ],
      "matrix": [
        0.077138006687164307,
        0,
        0,
        0,
        0,
        0.077138006687164307,
        0,
        0,
        0,
        0,
        0.077138006687164307,
        0,
        0,
        0,
        0,
        1
      ],
      "name": "Circle.001_1"
    },
    {
      "mesh": 1,
      "name": ""
    }
  ],
  "scene": 0,
  "scenes": [
    {
      "name": "OSG_Scene",
      "nodes": [
        0
      ]
    }
  ]
}

