{
  "accessors": [
    {
      "bufferView": 2,
      "componentType": 5126,
      "count": 256,
      "max": [
        125,
        125,
        -74.179702758789062
      ],
      "min": [
        -125,
        -125,
        -125
      ],
      "type": "VEC3"
    },
    {
      "bufferView": 2,
      "byteOffset": 3072,
      "componentType": 5126,
      "count": 256,
      "max": [
        0.70539426803588867,
        0.70539426803588867,
        1
      ],
      "min": [
        -0.70539575815200806,
        -0.70539122819900513,
        -1
      ],
      "type": "VEC3"
    },
    {
      "bufferView": 3,
      "componentType": 5126,
      "count": 256,
      "max": [
        0.99518603086471558,
        0.098030172288417816,
        0.70317518711090088,
        1
      ],
      "min": [
        0.50401651859283447,
        -0.69490355253219604,
        -0.70318281650543213,
        1
      ],
      "type": "VEC4"
    },
    {
      "bufferView": 1,
      "componentType": 5126,
      "count": 256,
      "max": [
        0.99989801645278931,
        0.99989998340606689
      ],
      "min": [
        9.9979799415450543e-05,
        9.9979799415450543e-05
      ],
      "type": "VEC2"
    },
    {
      "bufferView": 0,
      "componentType": 5125,
      "count": 1050,
      "max": [
        255
      ],
      "min": [
        0
      ],
      "type": "SCALAR"
    },
    {
      "bufferView": 2,
      "byteOffset": 6144,
      "componentType": 5126,
      "count": 132,
      "max": [
        125,
        125,
        -75.55670166015625
      ],
      "min": [
        -125,
        -125,
        -125
      ],
      "type": "VEC3"
    },
    {
      "bufferView": 2,
      "byteOffset": 7728,
      "componentType": 5126,
      "count": 132,
      "max": [
        1,
        1,
        2.3617106137407973e-07
      ],
      "min": [
        -1,
        -1,
        -2.3930201109578775e-07
      ],
      "type": "VEC3"
    },
    {
      "bufferView": 3,
      "byteOffset": 4096,
      "componentType": 5126,
      "count": 132,
      "max": [
        1,
        1,
        2.71016278929892e-06,
        1
      ],
      "min": [
        -1,
        -1,
        -5.3524440772889648e-06,
        1
      ],
      "type": "VEC4"
    },
    {
      "bufferView": 1,
      "byteOffset": 2048,
      "componentType": 5126,
      "count": 132,
      "max": [
        2.4999001026153564,
        0.62271302938461304
      ],
      "min": [
        -1.4998999834060669,
        0.37050598859786987
      ],
      "type": "VEC2"
    },
    {
      "bufferView": 0,
      "byteOffset": 4200,
      "componentType": 5125,
      "count": 576,
      "max": [
        131
      ],
      "min": [
        0
      ],
      "type": "SCALAR"
    },
    {
      "bufferView": 2,
      "byteOffset": 9312,
      "componentType": 5126,
      "count": 520,
      "max": [
        66.497901916503906,
        66.497901916503906,
        -39.089599609375
      ],
      "min": [
        -66.498001098632812,
        -66.498001098632812,
        -75.002098083496094
      ],
      "type": "VEC3"
    },
    {
      "bufferView": 2,
      "byteOffset": 15552,
      "componentType": 5126,
      "count": 520,
      "max": [
        1,
        1,
        1
      ],
      "min": [
        -1,
        -1,
        -0.19170704483985901
      ],
      "type": "VEC3"
    },
    {
      "bufferView": 3,
      "byteOffset": 6208,
      "componentType": 5126,
      "count": 520,
      "max": [
        1,
        1,
        0.71720290184020996,
        1
      ],
      "min": [
        -1,
        -1,
        -0.71716213226318359,
        1
      ],
      "type": "VEC4"
    },
    {
      "bufferView": 1,
      "byteOffset": 3104,
      "componentType": 5126,
      "count": 520,
      "max": [
        0.99996799230575562,
        0.89682602882385254
      ],
      "min": [
        3.1580100767314434e-05,
        3.1823601602809504e-05
      ],
      "type": "VEC2"
    },
    {
      "bufferView": 0,
      "byteOffset": 6504,
      "componentType": 5125,
      "count": 1920,
      "max": [
        519
      ],
      "min": [
        0
      ],
      "type": "SCALAR"
    },
    {
      "bufferView": 2,
      "byteOffset": 21792,
      "componentType": 5126,
      "count": 693,
      "max": [
        41.494400024414062,
        41.494400024414062,
        -0.036699701100587845
      ],
      "min": [
        -41.494400024414062,
        -41.494400024414062,
        -75.002098083496094
      ],
      "type": "VEC3"
    },
    {
      "bufferView": 2,
      "byteOffset": 30108,
      "componentType": 5126,
      "count": 693,
      "max": [
        1,
        1,
        1
      ],
      "min": [
        -1,
        -1,
        -0.58296430110931396
      ],
      "type": "VEC3"
    },
    {
      "bufferView": 3,
      "byteOffset": 14528,
      "componentType": 5126,
      "count": 693,
      "max": [
        0.99999946355819702,
        1,
        0.80664795637130737,
        1
      ],
      "min": [
        -0.99996930360794067,
        -0.96825301647186279,
        -0.87631464004516602,
        1
      ],
      "type": "VEC4"
    },
    {
      "bufferView": 1,
      "byteOffset": 7264,
      "componentType": 5126,
      "count": 693,
      "max": [
        0.99992597103118896,
        0.55113697052001953
      ],
      "min": [
        7.4228097219020128e-05,
        7.4228097219020128e-05
      ],
      "type": "VEC2"
    },
    {
      "bufferView": 0,
      "byteOffset": 14184,
      "componentType": 5125,
      "count": 2688,
      "max": [
        692
      ],
      "min": [
        0
      ],
      "type": "SCALAR"
    },
    {
      "bufferView": 2,
      "byteOffset": 38424,
      "componentType": 5126,
      "count": 561,
      "max": [
        19.808399200439453,
        19.808399200439453,
        36.276599884033203
      ],
      "min": [
        -19.808399200439453,
        -19.808399200439453,
        -24.039600372314453
      ],
      "type": "VEC3"
    },
    {
      "bufferView": 2,
      "byteOffset": 45156,
      "componentType": 5126,
      "count": 561,
      "max": [
        1,
        1,
        1
      ],
      "min": [
        -1,
        -1,
        -0.50737416744232178
      ],
      "type": "VEC3"
    },
    {
      "bufferView": 3,
      "byteOffset": 25616,
      "componentType": 5126,
      "count": 561,
      "max": [
        0.99999821186065674,
        0.99718213081359863,
        0.77268648147583008,
        1
      ],
      "min": [
        -0.99959838390350342,
        -0.99981880187988281,
        -0.67647713422775269,
        1
      ],
      "type": "VEC4"
    },
    {
      "bufferView": 1,
      "byteOffset": 12808,
      "componentType": 5126,
      "count": 561,
      "max": [
        0.99990200996398926,
        0.9559130072593689
      ],
      "min": [
        9.7756303148344159e-05,
        9.7756303148344159e-05
      ],
      "type": "VEC2"
    },
    {
      "bufferView": 0,
      "byteOffset": 24936,
      "componentType": 5125,
      "count": 2112,
      "max": [
        560
      ],
      "min": [
        0
      ],
      "type": "SCALAR"
    },
    {
      "bufferView": 2,
      "byteOffset": 51888,
      "componentType": 5126,
      "count": 1022,
      "max": [
        12.040200233459473,
        12.040200233459473,
        126.60399627685547
      ],
      "min": [
        -12.040200233459473,
        -12.040200233459473,
        24.206300735473633
      ],
      "type": "VEC3"
    },
    {
      "bufferView": 2,
      "byteOffset": 64152,
      "componentType": 5126,
      "count": 1022,
      "max": [
        1,
        1,
        0.97039562463760376
      ],
      "min": [
        -1,
        -1,
        -0.59576094150543213
      ],
      "type": "VEC3"
    },
    {
      "bufferView": 3,
      "byteOffset": 34592,
      "componentType": 5126,
      "count": 1022,
      "max": [
        0.99999028444290161,
        0.99998056888580322,
        0.98087525367736816,
        1
      ],
      "min": [
        -0.99999982118606567,
        -0.99997919797897339,
        -0.98107063770294189,
        1
      ],
      "type": "VEC4"
    },
    {
      "bufferView": 1,
      "byteOffset": 17296,
      "componentType": 5126,
      "count": 1022,
      "max": [
        0.47158199548721313,
        0.9999309778213501
      ],
      "min": [
        6.866209878353402e-05,
        6.866209878353402e-05
      ],
      "type": "VEC2"
    },
    {
      "bufferView": 0,
      "byteOffset": 33384,
      "componentType": 5125,
      "count": 5274,
      "max": [
        1021
      ],
      "min": [
        0
      ],
      "type": "SCALAR"
    }
  ],
  "asset": {
    "extras": {
      "author": "wolfgar74 (https://sketchfab.com/wolfgar74)",
      "license": "CC-BY-4.0 (http://creativecommons.org/licenses/by/4.0/)",
      "source": "https://sketchfab.com/models/952a9c257db641229902c36abb97e8bc",
      "title": "Medieval Fountain Empty"
    },
    "generator": "Sketchfab-3.47.8",
    "version": "2.0"
  },
  "bufferViews": [
    {
      "buffer": 0,
      "byteLength": 54480,
      "byteOffset": 0,
      "name": "floatBufferViews",
      "target": 34963
    },
    {
      "buffer": 0,
      "byteLength": 25472,
      "byteOffset": 54480,
      "byteStride": 8,
      "name": "floatBufferViews",
      "target": 34962
    },
    {
      "buffer": 0,
      "byteLength": 76416,
      "byteOffset": 79952,
      "byteStride": 12,
      "name": "floatBufferViews",
      "target": 34962
    },
    {
      "buffer": 0,
      "byteLength": 50944,
      "byteOffset": 156368,
      "byteStride": 16,
      "name": "floatBufferViews",
      "target": 34962
    }
  ],
  "buffers": [
    {
      "byteLength": 207312,
      "uri": "scene.bin"
    }
  ],
  "images": [
    {
      "uri": "textures/GardenFountainInner2_metallicRoughness.png"
    },
    {
      "uri": "textures/GardenFountainInner2_baseColor.png"
    },
    {
      "uri": "textures/GardenFountainInner2_normal.png"
    },
    {
      "uri": "textures/GardenFountainInner3_metallicRoughness.png"
    },
    {
      "uri": "textures/GardenFountainInner3_baseColor.png"
    },
    {
      "uri": "textures/GardenFountainInner3_normal.png"
    },
    {
      "uri": "textures/GardenFountainInner1_metallicRoughness.png"
    },
    {
      "uri": "textures/GardenFountainInner1_baseColor.png"
    },
    {
      "uri": "textures/GardenFountainInner1_normal.png"
    },
    {
      "uri": "textures/GardenFountainBase2_metallicRoughness.png"
    },
    {
      "uri": "textures/GardenFountainBase2_baseColor.png"
    },
    {
      "uri": "textures/GardenFountainBase2_normal.png"
    },
    {
      "uri": "textures/GardenFountainTop_metallicRoughness.png"
    },
    {
      "uri": "textures/GardenFountainTop_baseColor.png"
    },
    {
      "uri": "textures/GardenFountainTop_normal.png"
    },
    {
      "uri": "textures/GardenFountainBase_metallicRoughness.png"
    },
    {
      "uri": "textures/GardenFountainBase_baseColor.png"
    },
    {
      "uri": "textures/GardenFountainBase_normal.png"
    }
  ],
  "materials": [
    {
      "doubleSided": true,
      "emissiveFactor": [
        0,
        0,
        0
      ],
      "name": "GardenFountainBase",
      "normalTexture": {
        "index": 17,
        "scale": 1,
        "texCoord": 0
      },
      "occlusionTexture": {
        "index": 15,
        "strength": 1,
        "texCoord": 0
      },
      "pbrMetallicRoughness": {
        "baseColorFactor": [
          1,
          1,
          1,
          1
        ],
        "baseColorTexture": {
          "index": 16,
          "texCoord": 0
        },
        "metallicFactor": 1,
        "metallicRoughnessTexture": {
          "index": 15,
          "texCoord": 0
        },
        "roughnessFactor": 1
      }
    },
    {
      "doubleSided": true,
      "emissiveFactor": [
        0,
        0,
        0
      ],
      "name": "GardenFountainBase2",
      "normalTexture": {
        "index": 11,
        "scale": 1,
        "texCoord": 0
      },
      "occlusionTexture": {
        "index": 9,
        "strength": 1,
        "texCoord": 0
      },
      "pbrMetallicRoughness": {
        "baseColorFactor": [
          1,
          1,
          1,
          1
        ],
        "baseColorTexture": {
          "index": 10,
          "texCoord": 0
        },
        "metallicFactor": 1,
        "metallicRoughnessTexture": {
          "index": 9,
          "texCoord": 0
        },
        "roughnessFactor": 1
      }
    },
    {
      "doubleSided": true,
      "emissiveFactor": [
        0,
        0,
        0
      ],
      "name": "GardenFountainInner1",
      "normalTexture": {
        "index": 8,
        "scale": 1,
        "texCoord": 0
      },
      "occlusionTexture": {
        "index": 6,
        "strength": 1,
        "texCoord": 0
      },
      "pbrMetallicRoughness": {
        "baseColorFactor": [
          1,
          1,
          1,
          1
        ],
        "baseColorTexture": {
          "index": 7,
          "texCoord": 0
        },
        "metallicFactor": 1,
        "metallicRoughnessTexture": {
          "index": 6,
          "texCoord": 0
        },
        "roughnessFactor": 1
      }
    },
    {
      "doubleSided": true,
      "emissiveFactor": [
        0,
        0,
        0
      ],
      "name": "GardenFountainInner2",
      "normalTexture": {
        "index": 2,
        "scale": 1,
        "texCoord": 0
      },
      "occlusionTexture": {
        "index": 0,
        "strength": 1,
        "texCoord": 0
      },
      "pbrMetallicRoughness": {
        "baseColorFactor": [
          1,
          1,
          1,
          1
        ],
        "baseColorTexture": {
          "index": 1,
          "texCoord": 0
        },
        "metallicFactor": 1,
        "metallicRoughnessTexture": {
          "index": 0,
          "texCoord": 0
        },
        "roughnessFactor": 1
      }
    },
    {
      "doubleSided": true,
      "emissiveFactor": [
        0,
        0,
        0
      ],
      "name": "GardenFountainInner3",
      "normalTexture": {
        "index": 5,
        "scale": 1,
        "texCoord": 0
      },
      "occlusionTexture": {
        "index": 3,
        "strength": 1,
        "texCoord": 0
      },
      "pbrMetallicRoughness": {
        "baseColorFactor": [
          1,
          1,
          1,
          1
        ],
        "baseColorTexture": {
          "index": 4,
          "texCoord": 0
        },
        "metallicFactor": 1,
        "metallicRoughnessTexture": {
          "index": 3,
          "texCoord": 0
        },
        "roughnessFactor": 1
      }
    },
    {
      "doubleSided": true,
      "emissiveFactor": [
        0,
        0,
        0
      ],
      "name": "GardenFountainTop",
      "normalTexture": {
        "index": 14,
        "scale": 1,
        "texCoord": 0
      },
      "occlusionTexture": {
        "index": 12,
        "strength": 1,
        "texCoord": 0
      },
      "pbrMetallicRoughness": {
        "baseColorFactor": [
          1,
          1,
          1,
          1
        ],
        "baseColorTexture": {
          "index": 13,
          "texCoord": 0
        },
        "metallicFactor": 1,
        "metallicRoughnessTexture": {
          "index": 12,
          "texCoord": 0
        },
        "roughnessFactor": 1
      }
    }
  ],
  "meshes": [
    {
      "primitives": [
        {
          "attributes": {
            "NORMAL": 1,
            "POSITION": 0,
            "TANGENT": 2,
            "TEXCOORD_0": 3
          },
          "indices": 4,
          "material": 0,
          "mode": 4
        }
      ]
    },
    {
      "primitives": [
        {
          "attributes": {
            "NORMAL": 6,
            "POSITION": 5,
            "TANGENT": 7,
            "TEXCOORD_0": 8
          },
          "indices": 9,
          "material": 1,
          "mode": 4
        }
      ]
    },
    {
      "primitives": [
        {
          "attributes": {
            "NORMAL": 11,
            "POSITION": 10,
            "TANGENT": 12,
            "TEXCOORD_0": 13
          },
          "indices": 14,
          "material": 2,
          "mode": 4
        }
      ]
    },
    {
      "primitives": [
        {
          "attributes": {
            "NORMAL": 16,
            "POSITION": 15,
            "TANGENT": 17,
            "TEXCOORD_0": 18
          },
          "indices": 19,
          "material": 3,
          "mode": 4
        }
      ]
    },
    {
      "primitives": [
        {
          "attributes": {
            "NORMAL": 21,
            "POSITION": 20,
            "TANGENT": 22,
            "TEXCOORD_0": 23
          },
          "indices": 24,
          "material": 4,
          "mode": 4
        }
      ]
    },
    {
      "primitives": [
        {
          "attributes": {
            "NORMAL": 26,
            "POSITION": 25,
            "TANGENT": 27,
            "TEXCOORD_0": 28
          },
          "indices": 29,
          "material": 5,
          "mode": 4
        }
      ]
    }
  ],
  "nodes": [
    {
      "children": [
        1
      ],
      "name": "RootNode (gltf orientation matrix)",
      "rotation": [
        -0.70710678118654746,
        -0,
        -0,
        0.70710678118654757
      ]
    },
    {
      "children": [
        2
      ],
      "name": "RootNode (model correction matrix)"
    },
    {
      "children": [
        3,
        4,
        5,
        6,
        7,
        8
      ],
      "name": "GardenFountain.obj.cleaner.materialmerger.gles"
    },
    {
      "mesh": 0,
      "name": ""
    },
    {
      "mesh": 1,
      "name": ""
    },
    {
      "mesh": 2,
      "name": ""
    },
    {
      "mesh": 3,
      "name": ""
    },
    {
      "mesh": 4,
      "name": ""
    },
    {
      "mesh": 5,
      "name": ""
    }
  ],
  "samplers": [
    {
      "magFilter": 9729,
      "minFilter": 9987,
      "wrapS": 10497,
      "wrapT": 10497
    }
  ],
  "scene": 0,
  "scenes": [
    {
      "name": "OSG_Scene",
      "nodes": [
        0
      ]
    }
  ],
  "textures": [
    {
      "sampler": 0,
      "source": 0
    },
    {
      "sampler": 0,
      "source": 1
    },
    {
      "sampler": 0,
      "source": 2
    },
    {
      "sampler": 0,
      "source": 3
    },
    {
      "sampler": 0,
      "source": 4
    },
    {
      "sampler": 0,
      "source": 5
    },
    {
      "sampler": 0,
      "source": 6
    },
    {
      "sampler": 0,
      "source": 7
    },
    {
      "sampler": 0,
      "source": 8
    },
    {
      "sampler": 0,
      "source": 9
    },
    {
      "sampler": 0,
      "source": 10
    },
    {
      "sampler": 0,
      "source": 11
    },
    {
      "sampler": 0,
      "source": 12
    },
    {
      "sampler": 0,
      "source": 13
    },
    {
      "sampler": 0,
      "source": 14
    },
    {
      "sampler": 0,
      "source": 15
    },
    {
      "sampler": 0,
      "source": 16
    },
    {
      "sampler": 0,
      "source": 17
    }
  ]
}

